<svg width="26" height="26" viewBox="0 0 26 26" fill="none" xmlns="http://www.w3.org/2000/svg">
<g clip-path="url(#clip0_2638_37106)" filter="url(#filter0_d_2638_37106)">
<path d="M14.2481 10.0964C14.2212 10.0964 14.1953 10.0871 14.1745 10.0675C14.1329 10.0276 14.132 9.9621 14.1719 9.92129C14.3313 9.75973 14.5116 9.64069 14.7083 9.56756C14.9605 9.47318 15.1511 9.48253 15.6113 9.50464C15.7067 9.50889 15.8133 9.51399 15.9355 9.51909C16.0611 9.5242 16.3783 9.5361 16.6088 9.5378C16.8342 9.5395 17.2189 9.53185 17.966 9.44427C18.5908 9.37114 19.0033 9.32267 19.5788 9.19853C19.5875 9.19683 20.4905 8.99701 21.4576 8.47408C21.5417 8.42901 21.7956 8.29126 21.7878 8.19773C21.7809 8.11185 21.5616 8.01406 21.4039 7.9758C20.416 8.02682 19.4393 8.13225 18.5007 8.28956C18.4114 8.30487 16.3003 8.65264 15.1407 8.43071C14.5419 8.31592 14.1632 7.9843 14.1476 7.96985C14.1311 7.95539 14.1173 7.94264 14.1103 7.93584C14.0687 7.89587 14.067 7.83125 14.1077 7.78958C14.1476 7.74877 14.2143 7.74707 14.2568 7.78703C14.2637 7.79299 14.275 7.80404 14.2897 7.81679C14.2932 7.82019 14.6433 8.1246 15.1815 8.22749C16.3029 8.44176 18.4444 8.08889 18.466 8.08549C19.4167 7.92648 20.4073 7.82019 21.4091 7.76833C21.4186 7.76833 21.429 7.76833 21.4386 7.77088C21.5278 7.79128 21.9759 7.90693 21.9984 8.18072C22.0166 8.4069 21.7306 8.56166 21.5599 8.65434C20.6534 9.14411 19.7772 9.36774 19.6247 9.39835C19.0389 9.52675 18.622 9.57521 17.9911 9.64919C17.2319 9.73847 16.8376 9.74612 16.6071 9.74357C16.3731 9.74187 16.0533 9.72997 15.9268 9.72487C15.8037 9.71977 15.6963 9.71466 15.6009 9.71041C15.1598 9.68915 14.9943 9.68065 14.7837 9.75973C14.6164 9.82265 14.4613 9.92469 14.3235 10.0641C14.3027 10.0854 14.275 10.0956 14.2481 10.0956V10.0964Z" fill="#0D2936"/>
<path d="M10.8082 8.97406C10.7909 8.97406 10.7735 8.96981 10.7571 8.9613C10.7059 8.93324 10.6877 8.87117 10.7155 8.821C10.7796 8.70706 10.8056 8.59823 10.7926 8.49704C10.7458 8.12886 10.1998 7.89078 9.99355 7.80149L9.97535 7.79384C9.95109 7.78364 7.51238 6.6961 5.52432 3.84505C5.34492 3.58741 5.32066 3.37313 5.30853 3.27025L5.30593 3.24729C5.27386 2.99305 5.39952 2.78642 5.46625 2.67504C5.49312 2.62997 5.55118 2.61211 5.59971 2.63337C5.74098 2.69459 5.87877 2.76687 6.00963 2.8485C6.24536 2.99475 6.46375 3.17246 6.65701 3.37653C7.03313 3.77277 7.45518 4.12905 7.86423 4.47427C8.13202 4.70045 8.40848 4.93428 8.6702 5.17662C9.47357 5.92233 10.5898 6.56431 11.9868 7.08554C12.0414 7.10595 12.0683 7.16547 12.0475 7.21904C12.0267 7.27261 11.966 7.29897 11.9114 7.27856C10.4884 6.74712 9.34964 6.09069 8.52547 5.32627C8.26722 5.08734 7.99249 4.85435 7.72644 4.62987C7.31305 4.28125 6.88667 3.92072 6.50708 3.52108C6.43515 3.44541 6.22976 3.22858 5.89697 3.02281C5.80164 2.96329 5.70198 2.90972 5.60058 2.86125C5.54772 2.95733 5.49745 3.08148 5.51565 3.22178L5.51825 3.24814C5.52865 3.34082 5.54858 3.51428 5.69851 3.72941C7.65364 6.53285 10.0378 7.59572 10.0611 7.60592L10.0793 7.61358C10.3151 7.71561 10.9408 7.98771 11.0023 8.47238C11.0205 8.61778 10.9867 8.76913 10.9001 8.92134C10.881 8.95535 10.8446 8.97491 10.8082 8.97491V8.97406Z" fill="#0D2936"/>
<path d="M14.1249 7.83125C14.1188 7.83125 14.1128 7.83125 14.1067 7.82955C14.0495 7.81935 14.0114 7.76578 14.0209 7.70966C14.2948 6.18507 14.566 4.86966 14.8269 3.79998C15.2247 2.1674 15.2671 1.99649 15.2827 1.96418C15.2853 1.95908 15.5418 1.41659 15.6372 0.54503C15.6458 0.469353 15.6493 0.360515 15.5869 0.293341C15.5583 0.262731 15.5167 0.241473 15.4621 0.230419C15.4587 0.230419 15.4552 0.228719 15.4517 0.227868C15.3772 0.20491 15.307 0.200659 15.2429 0.214263C15.1666 0.231269 15.0401 0.352862 14.8676 0.576491C14.0209 1.67338 13.6751 3.05852 13.3406 4.39774C13.1985 4.96574 13.052 5.5533 12.8683 6.11535C12.8622 6.13405 12.8553 6.15786 12.8475 6.18507C12.8007 6.34833 12.714 6.65359 12.4722 6.93078C12.3934 7.02092 12.305 7.10254 12.2079 7.17482C12.1611 7.20968 12.0952 7.20033 12.0606 7.15441C12.025 7.1085 12.0346 7.04387 12.0814 7.00986C12.1663 6.94694 12.2443 6.87466 12.3128 6.79644C12.5242 6.5541 12.6005 6.28796 12.6456 6.1298C12.6542 6.10004 12.6612 6.07368 12.6681 6.05242C12.8492 5.49803 12.9948 4.91387 13.1361 4.34927C13.4758 2.98964 13.8268 1.58325 14.7003 0.452347C14.9187 0.170048 15.0626 0.0425028 15.1978 0.0127423C15.2975 -0.00936547 15.4032 -0.00341337 15.5107 0.028898C15.606 0.0493052 15.684 0.0909699 15.742 0.153892C15.8755 0.297593 15.8538 0.500814 15.846 0.567138C15.7464 1.47611 15.4838 2.02965 15.4725 2.05261C15.4578 2.09853 15.2975 2.75581 15.0314 3.84504C14.7705 4.91387 14.5002 6.22503 14.2272 7.74537C14.2185 7.79554 14.1734 7.8304 14.1232 7.8304L14.1249 7.83125Z" fill="#0D2936"/>
<path d="M4.84285 13.9075C4.4364 13.9075 4.13394 13.7647 4.01001 13.5045C3.99181 13.4662 3.99874 13.422 4.02821 13.3914C5.03264 12.3158 6.35339 11.5913 7.63081 10.8915C8.67077 10.3218 9.7454 9.73255 10.6415 8.95708C10.6848 8.91967 10.7516 8.92307 10.7906 8.96643C10.8287 9.00895 10.8252 9.07442 10.781 9.11268C9.86759 9.90261 8.78257 10.497 7.73307 11.0726C6.49205 11.7529 5.2103 12.4552 4.23447 13.4764C4.4338 13.7596 4.95638 13.7043 5.1193 13.6796C6.50419 13.4662 7.73307 12.7035 8.92123 11.9663C9.42561 11.6534 9.94646 11.3303 10.4751 11.0505L10.5072 11.0335C10.6458 10.9587 10.9344 10.8039 11.3279 10.7342C11.5437 10.6959 11.7655 10.6866 11.9874 10.7061C12.0454 10.7112 12.0879 10.7614 12.0827 10.8184C12.0775 10.8754 12.0264 10.917 11.9683 10.9119C11.7655 10.8941 11.5619 10.9034 11.3643 10.9374C11.0046 11.0012 10.7464 11.1398 10.6068 11.2146L10.573 11.2325C10.0505 11.5088 9.53221 11.8302 9.03129 12.1406C7.82494 12.8889 6.57785 13.6626 5.14964 13.8829C5.04044 13.8999 4.93731 13.9075 4.83938 13.9075H4.84285Z" fill="#0D2936"/>
<path d="M15.76 18C15.4757 18 15.1637 17.8138 14.8882 17.4694C13.9955 16.353 13.6203 14.9534 13.2572 13.5988C13.1064 13.0368 12.9504 12.4552 12.7597 11.9034C12.7528 11.8821 12.745 11.8566 12.7354 11.8268C12.6878 11.6687 12.6072 11.4051 12.3914 11.1653C12.3212 11.0879 12.2423 11.0173 12.1565 10.9553C12.1097 10.9221 12.0993 10.8566 12.1331 10.8107C12.1678 10.7648 12.2337 10.7546 12.2805 10.7878C12.3784 10.8583 12.4694 10.9383 12.5491 11.0275C12.7961 11.3013 12.888 11.604 12.9374 11.7665C12.9452 11.7937 12.953 11.8166 12.959 11.8353C13.1523 12.394 13.3091 12.979 13.4608 13.5444C13.8187 14.8777 14.1879 16.2569 15.0537 17.3393C15.1559 17.4669 15.5 17.8563 15.8423 17.7823C15.838 16.3827 15.3873 15.0112 14.9514 13.6839C14.5831 12.5615 14.2018 11.4008 14.0822 10.2121C14.0761 10.1551 14.1186 10.105 14.1767 10.099C14.2347 10.0931 14.2858 10.1347 14.2919 10.1917C14.4098 11.3583 14.7868 12.5079 15.1525 13.6201C15.6014 14.9865 16.065 16.3997 16.0529 17.8589C16.0529 17.9005 16.0269 17.9379 15.987 17.9541C15.9143 17.983 15.838 17.9975 15.7591 17.9975L15.76 18Z" fill="#0D2936"/>
<path d="M15.0421 1.43954C14.9901 1.43954 14.9407 1.42594 14.8991 1.39958C14.7518 1.3052 14.7674 1.09942 14.8133 0.984634C14.8627 0.861341 14.9832 0.733796 15.1305 0.74655C15.2007 0.752502 15.2466 0.788215 15.2648 0.80182C15.3862 0.894502 15.4503 1.10198 15.3524 1.26183C15.3012 1.34516 15.212 1.40893 15.114 1.43104C15.0898 1.43614 15.0655 1.43954 15.0421 1.43954ZM15.0144 1.22612C15.0256 1.23292 15.0447 1.23462 15.0664 1.22952C15.108 1.22017 15.1504 1.19041 15.1721 1.15554C15.2137 1.08752 15.1773 0.997389 15.1348 0.964227C15.1279 0.959125 15.1201 0.952323 15.1123 0.952323C15.088 0.948922 15.0334 1.00079 15.0101 1.06031C14.9867 1.11898 14.9841 1.20741 15.0144 1.22697V1.22612Z" fill="#0D2936"/>
<path d="M14.7775 2.32475C14.7342 2.32475 14.6909 2.31284 14.6554 2.28903C14.599 2.25162 14.5635 2.187 14.5592 2.11217C14.554 2.03139 14.5852 1.95402 14.6424 1.9047C14.6961 1.85878 14.7741 1.83752 14.8503 1.84858C14.9136 1.85793 14.9647 1.88769 14.9925 1.93276C15.0098 1.95912 15.0167 1.99228 15.015 2.0399C15.0124 2.10707 15.0089 2.21931 14.911 2.28393C14.8711 2.31029 14.8243 2.3239 14.7784 2.3239L14.7775 2.32475ZM14.7732 2.11727C14.7775 2.11727 14.7871 2.11727 14.7914 2.11387C14.7983 2.10707 14.8009 2.07646 14.8018 2.0535C14.7931 2.0535 14.7845 2.0569 14.7793 2.06115C14.7663 2.07306 14.7645 2.10707 14.7723 2.11812L14.7732 2.11727Z" fill="#0D2936"/>
<path d="M14.318 3.86373C14.2729 3.86373 14.2279 3.85268 14.188 3.82972C14.078 3.7668 14.0502 3.63925 14.0606 3.54912C14.0736 3.43178 14.1542 3.36376 14.2071 3.31954C14.2452 3.28723 14.292 3.25407 14.3553 3.25067C14.4367 3.24556 14.5182 3.29488 14.5572 3.37396C14.5884 3.43773 14.5884 3.4947 14.5841 3.54742C14.5763 3.6384 14.565 3.76255 14.4506 3.82887C14.4107 3.85183 14.3639 3.86373 14.318 3.86373ZM14.2937 3.65116C14.3093 3.65966 14.331 3.65796 14.3431 3.65116C14.3648 3.6384 14.37 3.57803 14.3743 3.52871C14.3778 3.4913 14.3743 3.47855 14.3683 3.46409C14.3683 3.46239 14.3665 3.46154 14.3657 3.45984C14.3622 3.46239 14.357 3.46579 14.3492 3.47259C14.3015 3.51341 14.2738 3.53722 14.2703 3.57208C14.2686 3.58398 14.2695 3.6367 14.2937 3.65031V3.65116Z" fill="#0D2936"/>
<path d="M13.4196 6.62042C13.3841 6.62042 13.3494 6.61362 13.3165 6.59661C13.2281 6.55155 13.1735 6.44356 13.1683 6.30666C13.1639 6.18252 13.2038 6.02351 13.3277 5.94954C13.4343 5.88576 13.6068 5.88491 13.6943 5.98525C13.7273 6.02266 13.7377 6.06348 13.7446 6.10259C13.7654 6.21908 13.7931 6.37894 13.6744 6.50478C13.6129 6.57025 13.5141 6.62127 13.4196 6.62127V6.62042ZM13.4135 6.41295C13.4283 6.41805 13.4846 6.40019 13.5201 6.36278C13.5643 6.31602 13.5557 6.24289 13.5375 6.1366C13.5349 6.1213 13.5331 6.11619 13.5323 6.11619C13.5227 6.10939 13.4673 6.10769 13.4369 6.12555C13.4031 6.14595 13.3789 6.21398 13.378 6.2871C13.378 6.36618 13.404 6.407 13.4127 6.41295H13.4135Z" fill="#0D2936"/>
<path d="M13.4444 7.27092C13.4279 7.27092 13.4115 7.26752 13.3959 7.25902L13.0648 7.08896C13.0128 7.0626 12.9929 7.00053 13.0198 6.94951C13.0466 6.89934 13.1099 6.87893 13.1619 6.90529L13.4929 7.07535C13.5449 7.10171 13.5649 7.16378 13.538 7.2148C13.5189 7.25052 13.4825 7.27007 13.4444 7.27007V7.27092Z" fill="#0D2936"/>
<path d="M13.1517 8.19689C13.1439 8.19689 13.1361 8.19689 13.1283 8.19434C12.9637 8.15863 12.8224 8.04809 12.7487 7.90014C12.7236 7.84912 12.7453 7.78705 12.7981 7.76239C12.8501 7.73773 12.9134 7.75899 12.9385 7.81085C12.9836 7.90184 13.0737 7.97156 13.1742 7.99367C13.2314 8.00642 13.267 8.06169 13.254 8.11696C13.2427 8.16543 13.1994 8.19774 13.1508 8.19774L13.1517 8.19689Z" fill="#0D2936"/>
<path d="M11.9455 8.71645C11.9134 8.71645 11.8822 8.70285 11.8614 8.67564C11.8259 8.63057 11.8354 8.5651 11.8814 8.53109C11.9394 8.48772 11.9819 8.42565 12.0009 8.35678C12.0165 8.30151 12.0737 8.26919 12.1301 8.2845C12.1864 8.29981 12.2193 8.35592 12.2037 8.41119C12.1725 8.52343 12.1032 8.62462 12.0087 8.69519C11.9897 8.70965 11.9671 8.71645 11.9446 8.71645H11.9455Z" fill="#0D2936"/>
<path d="M11.2103 7.9418C11.1601 7.9418 11.1159 7.90694 11.1072 7.85677C11.0968 7.80065 11.1341 7.74708 11.1921 7.73603C11.2597 7.72412 11.3256 7.68756 11.3707 7.63739C11.4097 7.59488 11.4755 7.59063 11.5197 7.62889C11.5631 7.66715 11.5674 7.73178 11.5284 7.77514C11.4513 7.86102 11.3447 7.91969 11.2303 7.9401C11.2242 7.94095 11.2173 7.9418 11.2112 7.9418H11.2103Z" fill="#0D2936"/>
<path d="M13.3028 9.22322C13.2552 9.22322 13.2118 9.19176 13.2006 9.14414C13.1806 9.06081 13.1832 8.97408 13.2101 8.8933C13.2274 8.83888 13.2872 8.80912 13.3427 8.82613C13.3982 8.84314 13.4285 8.90181 13.4112 8.95623C13.3964 9.00044 13.3947 9.05061 13.406 9.09568C13.4198 9.15094 13.3852 9.20706 13.328 9.22067C13.3193 9.22237 13.3115 9.22322 13.3028 9.22322Z" fill="#0D2936"/>
<path d="M14.6582 9.19686C14.6088 9.19686 14.5646 9.162 14.555 9.11268L14.5056 8.85249C14.4952 8.79637 14.5325 8.7428 14.5897 8.73175C14.6469 8.72154 14.7015 8.75811 14.7128 8.81423L14.7622 9.07442C14.7726 9.13054 14.7353 9.18411 14.6781 9.19516C14.672 9.19601 14.6651 9.19686 14.659 9.19686H14.6582Z" fill="#0D2936"/>
<path d="M12.4775 9.60838C12.4775 9.60838 12.4706 9.60838 12.4671 9.60838C12.3475 9.59733 12.247 9.50124 12.2314 9.38475C12.2236 9.32778 12.2652 9.27676 12.3224 9.26911C12.3796 9.26146 12.4325 9.30227 12.4403 9.35839C12.4429 9.3788 12.4654 9.40091 12.4871 9.40261C12.5451 9.40771 12.5876 9.45873 12.5824 9.51485C12.5772 9.56842 12.5313 9.60838 12.4775 9.60838Z" fill="#0D2936"/>
<path d="M12.3472 10.3235C12.3377 10.3235 12.3273 10.3218 12.3177 10.3192C12.1782 10.2793 12.076 10.1475 12.0742 10.0046C12.0742 9.94764 12.1202 9.90087 12.1782 9.90002H12.1791C12.2371 9.90002 12.2839 9.94594 12.2848 10.0021C12.2848 10.0539 12.3255 10.1058 12.3767 10.1203C12.4321 10.1364 12.4651 10.1934 12.4486 10.2486C12.4356 10.2937 12.3931 10.3235 12.3472 10.3235Z" fill="#0D2936"/>
<path d="M8.27508 11.934C8.23954 11.934 8.20488 11.9263 8.17195 11.9101C8.08355 11.8651 8.02808 11.7571 8.02375 11.6193C8.01942 11.4952 8.05928 11.3362 8.18321 11.2622C8.28981 11.1984 8.46227 11.1976 8.5498 11.2979C8.58273 11.3353 8.59313 11.3762 8.60006 11.4153C8.62 11.5318 8.6486 11.6916 8.52987 11.8175C8.46747 11.8829 8.36954 11.934 8.27508 11.934ZM8.26901 11.7265C8.28374 11.7316 8.34007 11.7137 8.37561 11.6763C8.4198 11.6295 8.41114 11.5564 8.39294 11.4501C8.39034 11.4348 8.3886 11.4297 8.38774 11.4289C8.37821 11.4221 8.32274 11.4204 8.29241 11.4382C8.25861 11.4586 8.23348 11.5267 8.23348 11.5998C8.23348 11.678 8.25948 11.7197 8.26814 11.7256L8.26901 11.7265Z" fill="#0D2936"/>
<path d="M20.9235 8.54464C20.8784 8.54464 20.8333 8.53359 20.7935 8.51063C20.6834 8.44771 20.6557 8.32016 20.6661 8.23003C20.6791 8.11269 20.7597 8.04466 20.8126 8.00045C20.8507 7.96814 20.8975 7.93498 20.9607 7.93157C21.0431 7.92647 21.1237 7.97579 21.1627 8.05487C21.1939 8.11864 21.1939 8.17561 21.1895 8.22748C21.1817 8.31846 21.1705 8.44261 21.0561 8.50978C21.0162 8.53274 20.9694 8.54464 20.9235 8.54464ZM20.8992 8.33207C20.9148 8.34057 20.9365 8.33887 20.9486 8.33207C20.9703 8.31931 20.9755 8.25894 20.9798 8.20962C20.9833 8.17221 20.9798 8.15946 20.9737 8.145C20.9737 8.1433 20.972 8.14245 20.9711 8.1416C20.9677 8.14415 20.9625 8.14755 20.9547 8.15435C20.907 8.19517 20.8793 8.21898 20.8758 8.25384C20.8741 8.26574 20.8749 8.31846 20.8992 8.33207Z" fill="#0D2936"/>
<path d="M20.2619 8.68498C20.2186 8.68498 20.1753 8.67307 20.1397 8.64926C20.0834 8.61185 20.0479 8.54723 20.0435 8.4724C20.0383 8.39162 20.0695 8.31425 20.1259 8.26493C20.1796 8.21901 20.2576 8.19775 20.3339 8.20881C20.3971 8.21816 20.4482 8.24792 20.476 8.29299C20.4933 8.32105 20.5002 8.35336 20.4985 8.40013C20.4959 8.4673 20.4924 8.57954 20.3945 8.64416C20.3547 8.67052 20.3079 8.68413 20.2619 8.68413V8.68498ZM20.2576 8.47835C20.2619 8.47835 20.2715 8.47835 20.2758 8.47495C20.2827 8.46815 20.2853 8.43754 20.2862 8.41458C20.2775 8.41458 20.2689 8.41798 20.2637 8.42223C20.2507 8.43329 20.2498 8.46815 20.2567 8.4792L20.2576 8.47835Z" fill="#0D2936"/>
<path d="M18.947 9.06419C18.9019 9.06419 18.8568 9.05313 18.817 9.03018C18.706 8.96725 18.6792 8.83971 18.6896 8.74958C18.7026 8.63224 18.7832 8.56421 18.836 8.51915C18.8742 8.48683 18.921 8.45367 18.9842 8.45027C19.0665 8.44602 19.148 8.49449 19.1861 8.57356C19.2173 8.63734 19.2173 8.69431 19.213 8.74618C19.2052 8.83716 19.1939 8.9613 19.0795 9.02762C19.0397 9.05058 18.9929 9.06249 18.947 9.06249V9.06419ZM18.9227 8.85161C18.9383 8.86012 18.9608 8.85841 18.9721 8.85161C18.9938 8.83886 18.999 8.77849 19.0033 8.72917C19.0068 8.69176 19.0033 8.679 18.9972 8.66455C18.9972 8.66285 18.9955 8.662 18.9946 8.66115C18.9912 8.6637 18.986 8.6671 18.9782 8.6739C18.9305 8.71471 18.9036 8.73852 18.8993 8.77339C18.8976 8.78529 18.8984 8.83801 18.9227 8.85161Z" fill="#0D2936"/>
<path d="M7.58614 12.087C7.54281 12.087 7.49948 12.0751 7.46395 12.0513C7.40761 12.0139 7.37208 11.9493 7.36775 11.8744C7.36255 11.7937 7.39375 11.7163 7.45008 11.667C7.50381 11.6211 7.58181 11.5998 7.65807 11.6108C7.72134 11.6202 7.77247 11.65 7.8002 11.695C7.81753 11.7214 7.82447 11.7545 7.82273 11.8022C7.82013 11.8693 7.81667 11.9816 7.71874 12.0462C7.67887 12.0726 7.63207 12.0862 7.58614 12.0862V12.087ZM7.58181 11.8804C7.58614 11.8804 7.59567 11.8804 7.60001 11.877C7.60694 11.8702 7.60954 11.8396 7.61127 11.8166C7.60261 11.8166 7.59394 11.82 7.58874 11.8243C7.57574 11.8362 7.57487 11.8702 7.58181 11.8812V11.8804Z" fill="#0D2936"/>
<path d="M6.11243 13.0717C6.06043 13.0717 6.01103 13.0581 5.96943 13.0317C5.82211 12.9373 5.83771 12.7316 5.88364 12.6168C5.93303 12.4935 6.05263 12.3659 6.20082 12.3787C6.27016 12.3846 6.31695 12.4204 6.33429 12.434C6.45562 12.5266 6.51975 12.7341 6.42268 12.894C6.37155 12.9773 6.28229 13.0411 6.18436 13.0632C6.16009 13.0683 6.13583 13.0717 6.11243 13.0717ZM6.18089 12.5845C6.15489 12.5845 6.10376 12.6338 6.08036 12.6925C6.05696 12.7511 6.05436 12.8396 6.08556 12.8591C6.09683 12.8659 6.11589 12.8676 6.13756 12.8625C6.17916 12.8532 6.22162 12.8234 6.24242 12.7885C6.28402 12.7205 6.24849 12.6295 6.20516 12.5972C6.19909 12.5921 6.19043 12.5853 6.18263 12.5853C6.18263 12.5853 6.18176 12.5853 6.18089 12.5853V12.5845Z" fill="#0D2936"/>
<path d="M10.1906 7.41379C10.1386 7.41379 10.0892 7.40018 10.0476 7.37382C9.90023 7.27944 9.91583 7.07367 9.96176 6.95888C10.0112 6.83558 10.1325 6.70804 10.279 6.72079C10.3483 6.72675 10.3951 6.76246 10.4124 6.77606C10.5337 6.8696 10.5979 7.07622 10.5008 7.23607C10.4497 7.3194 10.3604 7.38318 10.2625 7.40528C10.2382 7.41039 10.214 7.41379 10.1906 7.41379ZM10.1628 7.20036C10.1741 7.20802 10.1932 7.20887 10.2148 7.20376C10.2564 7.19441 10.2989 7.16465 10.3197 7.12979C10.3613 7.06176 10.3249 6.97163 10.2824 6.93847C10.2764 6.93337 10.2677 6.92657 10.2599 6.92657C10.233 6.92316 10.181 6.97418 10.1576 7.03455C10.1342 7.09322 10.1316 7.18166 10.1628 7.20121V7.20036Z" fill="#0D2936"/>
<path d="M13.6359 11.5964C13.5839 11.5964 13.5345 11.5828 13.4929 11.5564C13.3455 11.4621 13.3611 11.2563 13.4071 11.1415C13.4565 11.0182 13.5752 10.8907 13.7243 10.9034C13.7936 10.9094 13.8404 10.9451 13.8577 10.9587C13.9791 11.0514 14.0432 11.2588 13.9461 11.4187C13.895 11.5029 13.8057 11.5658 13.7069 11.5879C13.6827 11.593 13.6584 11.5964 13.635 11.5964H13.6359ZM13.6081 11.383C13.6194 11.3898 13.6385 11.3915 13.6601 11.3864C13.7017 11.377 13.7442 11.3473 13.7659 11.3124C13.8075 11.2444 13.7711 11.1542 13.7286 11.1211C13.7225 11.116 13.713 11.1092 13.7061 11.1092C13.6844 11.1058 13.6272 11.1568 13.6038 11.2172C13.5804 11.2758 13.5778 11.3643 13.609 11.3838L13.6081 11.383Z" fill="#0D2936"/>
<path d="M15.0968 16.6855C15.0448 16.6855 14.9954 16.6718 14.9538 16.6455C14.8065 16.5511 14.8221 16.3453 14.868 16.2305C14.9174 16.1073 15.0379 15.9797 15.1852 15.9925C15.2545 15.9984 15.3013 16.0341 15.3187 16.0477C15.44 16.1404 15.5041 16.3479 15.4071 16.5077C15.3559 16.5911 15.2667 16.6548 15.1687 16.677C15.1445 16.6821 15.1202 16.6855 15.0968 16.6855ZM15.0691 16.472C15.0803 16.4797 15.0994 16.4805 15.1211 16.4754C15.1627 16.4661 15.2051 16.4363 15.2259 16.4015C15.2675 16.3334 15.232 16.2424 15.1887 16.2101C15.1826 16.205 15.1739 16.1982 15.1661 16.1982C15.1427 16.194 15.0873 16.2459 15.0639 16.3062C15.0405 16.3649 15.0379 16.4533 15.0691 16.4729V16.472Z" fill="#0D2936"/>
<path d="M14.1813 14.1966C14.1458 14.1966 14.1111 14.1889 14.0782 14.1728C13.9898 14.1277 13.9343 14.0197 13.93 13.882C13.9257 13.7578 13.9655 13.5988 14.0895 13.5249C14.1961 13.4611 14.3685 13.4602 14.456 13.5606C14.489 13.598 14.4994 13.6388 14.5063 13.6779C14.5271 13.7944 14.5548 13.9543 14.4361 14.0801C14.3746 14.1456 14.2758 14.1966 14.1813 14.1966ZM14.1753 13.9891C14.19 13.9942 14.2463 13.9764 14.2819 13.9389C14.3261 13.8922 14.3174 13.8191 14.2992 13.7128C14.2966 13.6975 14.2949 13.6924 14.294 13.6915C14.2845 13.6847 14.229 13.683 14.1987 13.7009C14.1649 13.7213 14.1397 13.7893 14.1397 13.8624C14.1397 13.9406 14.1657 13.9823 14.1744 13.9883L14.1753 13.9891Z" fill="#0D2936"/>
<path d="M13.9611 13.2443C13.9178 13.2443 13.8745 13.2324 13.8389 13.2086C13.7826 13.1712 13.7471 13.1066 13.7427 13.0317C13.7375 12.9509 13.7687 12.8736 13.8251 12.8243C13.8788 12.7783 13.9568 12.7571 14.0331 12.7681C14.0963 12.7775 14.1475 12.8072 14.1752 12.8523C14.1925 12.8787 14.1995 12.9118 14.1977 12.9595C14.1951 13.0266 14.1917 13.1389 14.0937 13.2035C14.0539 13.2298 14.0071 13.2435 13.9611 13.2435V13.2443ZM13.9568 13.0368C13.9611 13.0368 13.9707 13.0368 13.975 13.0334C13.9819 13.0266 13.9845 12.996 13.9854 12.9731C13.9767 12.9731 13.9681 12.9765 13.9629 12.9807C13.9499 12.9926 13.949 13.0266 13.9559 13.0377L13.9568 13.0368Z" fill="#0D2936"/>
<path d="M6.31661 4.08482C6.27328 4.08482 6.22995 4.07291 6.19441 4.04911C6.13808 4.01169 6.10255 3.94707 6.09822 3.87224C6.09302 3.79146 6.12422 3.71409 6.18055 3.66477C6.23428 3.61885 6.31228 3.5976 6.38854 3.60865C6.4518 3.618 6.50207 3.64776 6.53067 3.69283C6.548 3.72004 6.55493 3.7532 6.5532 3.79997C6.5506 3.86714 6.54713 3.97938 6.4492 4.044C6.40934 4.07036 6.36254 4.08397 6.31661 4.08397V4.08482ZM6.31228 3.87819C6.31748 3.87819 6.32614 3.87819 6.33048 3.87479C6.33741 3.86799 6.34001 3.83738 6.34088 3.81442C6.33221 3.81442 6.32354 3.81782 6.31834 3.82208C6.30534 3.83313 6.30448 3.86799 6.31141 3.87905L6.31228 3.87819Z" fill="#0D2936"/>
<path d="M6.83118 4.90536C6.77918 4.90536 6.72978 4.89176 6.68818 4.8654C6.54086 4.77102 6.55646 4.56524 6.60239 4.45045C6.65178 4.32716 6.77051 4.19962 6.91957 4.21237C6.98891 4.21832 7.0357 4.25404 7.05304 4.26764C7.17437 4.36032 7.2385 4.5678 7.14143 4.72765C7.0903 4.81098 7.00104 4.87475 6.90311 4.89686C6.87884 4.90196 6.85458 4.90536 6.83118 4.90536ZM6.89964 4.41814C6.87364 4.41814 6.82165 4.46746 6.79825 4.52613C6.77485 4.5848 6.77225 4.67323 6.80345 4.69279C6.81471 4.69959 6.83378 4.70129 6.85544 4.69619C6.89704 4.68684 6.93951 4.65708 6.96031 4.62222C7.00191 4.55419 6.96637 4.46321 6.92304 4.4309C6.91697 4.4258 6.90744 4.41899 6.90051 4.41899C6.90051 4.41899 6.89964 4.41899 6.89878 4.41899L6.89964 4.41814Z" fill="#0D2936"/>
<path d="M7.66712 5.71575C7.61512 5.71575 7.56572 5.70214 7.52412 5.67578C7.37679 5.5814 7.39239 5.37563 7.43832 5.26084C7.48772 5.13754 7.60818 5.01085 7.75551 5.02275C7.82571 5.0287 7.87164 5.06442 7.88984 5.07802C8.01117 5.1707 8.0753 5.37818 7.97737 5.53803C7.92624 5.62136 7.83698 5.68514 7.73905 5.70724C7.71478 5.71234 7.69052 5.71575 7.66712 5.71575ZM7.63938 5.50232C7.65065 5.50912 7.66972 5.51082 7.69138 5.50572C7.73298 5.49637 7.77545 5.46661 7.79711 5.43175C7.83871 5.36372 7.80231 5.27359 7.75985 5.24043C7.75291 5.23533 7.74511 5.22852 7.73731 5.22852C7.71305 5.22427 7.65845 5.27699 7.63505 5.33651C7.61165 5.39518 7.60905 5.48361 7.63938 5.50317V5.50232Z" fill="#0D2936"/>
</g>
<defs>
<filter id="filter0_d_2638_37106" x="0" y="0" width="26" height="26" filterUnits="userSpaceOnUse" color-interpolation-filters="sRGB">
<feFlood flood-opacity="0" result="BackgroundImageFix"/>
<feColorMatrix in="SourceAlpha" type="matrix" values="0 0 0 0 0 0 0 0 0 0 0 0 0 0 0 0 0 0 127 0" result="hardAlpha"/>
<feOffset dy="4"/>
<feGaussianBlur stdDeviation="2"/>
<feComposite in2="hardAlpha" operator="out"/>
<feColorMatrix type="matrix" values="0 0 0 0 0 0 0 0 0 0 0 0 0 0 0 0 0 0 0.25 0"/>
<feBlend mode="normal" in2="BackgroundImageFix" result="effect1_dropShadow_2638_37106"/>
<feBlend mode="normal" in="SourceGraphic" in2="effect1_dropShadow_2638_37106" result="shape"/>
</filter>
<clipPath id="clip0_2638_37106">
<rect width="18" height="18" fill="white" transform="translate(4)"/>
</clipPath>
</defs>
</svg>
